<svg width="600" height="380" xmlns="http://www.w3.org/2000/svg">
  <defs>
    <linearGradient id="bg" x1="0%" y1="0%" x2="100%" y2="100%">
      <stop offset="0%" style="stop-color:#0a0a0a"/>
      <stop offset="100%" style="stop-color:#1a0030"/>
    </linearGradient>
  </defs>
  <rect width="600" height="380" fill="url(#bg)"/>
  <line x1="0" y1="95" x2="600" y2="95" stroke="#1e1e1e" stroke-width="1"/>
  <line x1="0" y1="190" x2="600" y2="190" stroke="#1e1e1e" stroke-width="1"/>
  <line x1="0" y1="285" x2="600" y2="285" stroke="#1e1e1e" stroke-width="1"/>
  <line x1="150" y1="0" x2="150" y2="380" stroke="#1e1e1e" stroke-width="1"/>
  <line x1="300" y1="0" x2="300" y2="380" stroke="#1e1e1e" stroke-width="1"/>
  <line x1="450" y1="0" x2="450" y2="380" stroke="#1e1e1e" stroke-width="1"/>
  <rect x="20" y="20" width="140" height="22" rx="11" fill="#1e1e1e" stroke="#9d00ff" stroke-width="1"/>
  <text x="90" y="35" text-anchor="middle" fill="#9d00ff" font-size="11" font-family="monospace">v0.3.7 · IN DEV</text>
  <text x="300" y="135" text-anchor="middle" fill="#9d00ff" font-size="52" font-family="monospace" font-weight="bold" letter-spacing="-2">StudyNexus</text>
  <text x="300" y="168" text-anchor="middle" fill="#555" font-size="14" font-family="monospace">Gamified SaaS · HS Hannover</text>
  <rect x="108" y="218" width="95" height="28" rx="14" fill="#0a0a0a" stroke="#9d00ff" stroke-width="1"/>
  <text x="155" y="236" text-anchor="middle" fill="#ce80ff" font-size="12" font-family="monospace">Next.js 14</text>
  <rect x="218" y="218" width="80" height="28" rx="14" fill="#0a0a0a" stroke="#444" stroke-width="1"/>
  <text x="258" y="236" text-anchor="middle" fill="#888" font-size="12" font-family="monospace">FastAPI</text>
  <rect x="313" y="218" width="100" height="28" rx="14" fill="#0a0a0a" stroke="#444" stroke-width="1"/>
  <text x="363" y="236" text-anchor="middle" fill="#888" font-size="12" font-family="monospace">PostgreSQL</text>
  <rect x="428" y="218" width="70" height="28" rx="14" fill="#0a0a0a" stroke="#444" stroke-width="1"/>
  <text x="463" y="236" text-anchor="middle" fill="#888" font-size="12" font-family="monospace">Docker</text>
  <line x1="0" y1="330" x2="600" y2="330" stroke="#1a1a1a" stroke-width="1"/>
  <text x="300" y="356" text-anchor="middle" fill="#333" font-size="11" font-family="monospace">143 Files · 9 DB Models · 14 ADRs · 5 Docker Services</text>
</svg>
